<svg id="Capa_1" enable-background="new 0 0 512 512" height="512" viewBox="0 0 512 512" width="512" xmlns="http://www.w3.org/2000/svg"><g><path d="m474.5 158h-30l30 151.5c0 8.28 6.71 14.5 15 14.5 8.28 0 15-6.22 15-14.5v-121.5c0-16.5-13.5-30-30-30z" fill="#4ad6cf"/><path d="m368.834 158h30l-30.001 151c0 8.28-6.72 15-15 15s-15-6.72-15-15l.001-121c0-16.5 13.5-30 30-30z" fill="#9bfef7"/><path d="m474.5 188c0-16.5-13.5-30-30-30h-45.667c-16.5 0-30 13.5-30 30v267.084c0 10.447 8.469 18.916 18.917 18.916 10.447 0 18.917-8.469 18.917-18.916v-146.084h30v146.084c0 10.447 8.469 18.916 18.917 18.916 10.447 0 18.916-8.469 18.916-18.916z" fill="#4ef5e9"/><path d="m421.338 38v90c24.853 0 45-20.147 45-45s-20.147-45-45-45z" fill="#4ad6cf"/><path d="m436.338 83c0-24.853-6.716-45-15-45-24.853 0-45 20.147-45 45s20.147 45 45 45c8.284 0 15-20.147 15-45z" fill="#4ef5e9"/><path d="m143.167 158h-30l29.999 151.5c0 8.28 6.71 14.5 15 14.5 8.28 0 15-6.22 15-14.5l.001-121.5c0-16.5-13.5-30-30-30z" fill="#c782ff"/><path d="m37.5 158h30l-30 151c0 8.28-6.72 15-15 15s-15-6.72-15-15v-121c0-16.5 13.5-30 30-30z" fill="#ccc9fa"/><path d="m143.167 188c0-16.5-13.5-30-30-30h-45.667c-16.5 0-30 13.5-30 30v267.084c0 10.447 8.47 18.916 18.917 18.916s18.917-8.469 18.917-18.916v-146.084h30v146.084c0 10.447 8.469 18.916 18.917 18.916 10.447 0 18.916-8.469 18.916-18.916z" fill="#caa6fd"/><path d="m90.005 38v90c24.853 0 45-20.147 45-45s-20.148-45-45-45z" fill="#c782ff"/><path d="m105.005 83c0-24.853-6.716-45-15-45-24.853 0-45 20.147-45 45s20.147 45 45 45c8.284 0 15-20.147 15-45z" fill="#caa6fd"/><path d="m291.638 213.197c-2.93-2.929-7.678-2.929-10.607 0s-2.929 7.678 0 10.606l9.697 9.697h-69.454l9.697-9.697c2.929-2.929 2.929-7.678 0-10.606-2.93-2.929-7.678-2.929-10.607 0l-22.5 22.5c-2.929 2.929-2.929 7.678 0 10.606l22.5 22.5c1.465 1.464 3.385 2.197 5.304 2.197s3.839-.732 5.304-2.197c2.929-2.929 2.929-7.678 0-10.606l-9.697-9.697h69.454l-9.697 9.697c-2.929 2.929-2.929 7.678 0 10.606 1.465 1.464 3.385 2.197 5.304 2.197s3.839-.732 5.304-2.197l22.5-22.5c2.929-2.929 2.929-7.678 0-10.606z"/><path d="m143.167 150.5h-105.667c-20.678 0-37.5 16.822-37.5 37.5 0 4.142 3.357 7.5 7.5 7.5s7.5-3.358 7.5-7.5c0-12.407 10.094-22.5 22.5-22.5h105.667c12.406 0 22.5 10.093 22.5 22.5l-.001 121.5c0 3.991-3.225 7-7.5 7s-7.5-3.009-7.5-7v-121c0-4.142-3.357-7.5-7.5-7.5s-7.5 3.358-7.5 7.5v267.083c0 5.917-5.228 10.917-11.416 10.917-6.295 0-11.417-5.122-11.417-11.417v-146.083c0-4.142-3.357-7.5-7.5-7.5h-30c-4.143 0-7.5 3.358-7.5 7.5v146.083c0 6.295-5.121 11.417-11.416 11.417-6.188 0-11.417-4.999-11.417-10.917v-267.083c0-4.142-3.357-7.5-7.5-7.5s-7.5 3.358-7.5 7.5v120.5c0 4.136-3.364 7.5-7.5 7.5s-7.5-3.364-7.5-7.5v-91c0-4.142-3.357-7.5-7.5-7.5s-7.5 3.358-7.5 7.5v91c0 12.407 10.094 22.5 22.5 22.5 2.629 0 5.153-.458 7.5-1.29v125.374c0 14.291 11.851 25.917 26.417 25.917 14.565 0 26.416-11.851 26.416-26.417v-138.584h15v138.583c0 14.566 11.851 26.417 26.417 26.417 14.565 0 26.416-11.626 26.416-25.917v-125.296c2.337.784 4.857 1.213 7.5 1.213 12.617 0 22.5-9.664 22.5-22l.001-121.5c0-20.678-16.822-37.5-37.5-37.5z"/><path d="m90.005 135.5c28.948 0 52.5-23.551 52.5-52.5s-23.552-52.5-52.5-52.5-52.5 23.551-52.5 52.5 23.552 52.5 52.5 52.5zm0-90c20.678 0 37.5 16.822 37.5 37.5s-16.822 37.5-37.5 37.5-37.5-16.822-37.5-37.5 16.822-37.5 37.5-37.5z"/><path d="m474.5 150.5h-105.666c-20.678 0-37.5 16.822-37.5 37.5l-.001 121c0 12.407 10.094 22.5 22.5 22.5 2.629 0 5.153-.458 7.5-1.29v125.374c0 14.291 11.851 25.917 26.416 25.917 14.566 0 26.417-11.851 26.417-26.417v-138.584h15l.001 138.583c0 14.566 11.851 26.417 26.416 26.417 14.566 0 26.417-11.626 26.417-25.917v-125.296c2.337.784 4.858 1.213 7.5 1.213 12.617 0 22.5-9.664 22.5-22v-121.5c0-20.678-16.822-37.5-37.5-37.5zm22.5 159c0 3.991-3.225 7-7.5 7s-7.5-3.009-7.5-7c0-.011-.001-121-.001-121 0-4.142-3.357-7.5-7.5-7.5s-7.5 3.358-7.5 7.5l.001 267.083c0 5.917-5.229 10.917-11.417 10.917-6.295 0-11.416-5.122-11.416-11.417l-.001-146.083c0-4.142-3.357-7.5-7.5-7.5h-30c-1.989 0-3.896.79-5.304 2.197-1.406 1.406-2.196 3.314-2.196 5.303l.001 146.083c0 6.295-5.122 11.417-11.417 11.417-6.188 0-11.416-4.999-11.416-10.917l-.001-267.083c0-4.142-3.357-7.5-7.5-7.5s-7.5 3.358-7.5 7.5v120.491c0 4.144-3.365 7.509-7.5 7.509s-7.5-3.364-7.5-7.5l.001-121c0-12.407 10.094-22.5 22.5-22.5h105.666c12.406 0 22.5 10.093 22.5 22.5z"/><path d="m421.338 135.5c28.948 0 52.5-23.551 52.5-52.5s-23.552-52.5-52.5-52.5-52.5 23.551-52.5 52.5 23.552 52.5 52.5 52.5zm0-90c20.678 0 37.5 16.822 37.5 37.5s-16.822 37.5-37.5 37.5-37.5-16.822-37.5-37.5 16.822-37.5 37.5-37.5z"/></g></svg>